<svg width="53" height="56" viewBox="0 0 53 56" fill="none" xmlns="http://www.w3.org/2000/svg">
<g filter="url(#filter0_d)">
<rect x="4" width="45" height="48" rx="22.5" fill="url(#paint0_linear)"/>
</g>
<path fill-rule="evenodd" clip-rule="evenodd" d="M33.6667 18.3333H20.3334C19.4167 18.3333 18.6751 19.0833 18.6751 20L18.6667 30C18.6667 30.9167 19.4167 31.6667 20.3334 31.6667H33.6667C34.5834 31.6667 35.3334 30.9167 35.3334 30V20C35.3334 19.0833 34.5834 18.3333 33.6667 18.3333ZM20.3334 21.6667L27.0001 25.8333L33.6668 21.6667V30H20.3334V21.6667ZM20.3334 20L27.0001 24.1667L33.6668 20H20.3334Z" fill="white"/>
<defs>
<filter id="filter0_d" x="0" y="0" width="53" height="56" filterUnits="userSpaceOnUse" color-interpolation-filters="sRGB">
<feFlood flood-opacity="0" result="BackgroundImageFix"/>
<feColorMatrix in="SourceAlpha" type="matrix" values="0 0 0 0 0 0 0 0 0 0 0 0 0 0 0 0 0 0 127 0"/>
<feOffset dy="4"/>
<feGaussianBlur stdDeviation="2"/>
<feColorMatrix type="matrix" values="0 0 0 0 0 0 0 0 0 0 0 0 0 0 0 0 0 0 0.25 0"/>
<feBlend mode="normal" in2="BackgroundImageFix" result="effect1_dropShadow"/>
<feBlend mode="normal" in="SourceGraphic" in2="effect1_dropShadow" result="shape"/>
</filter>
<linearGradient id="paint0_linear" x1="4" y1="48" x2="54.2503" y2="6.3317" gradientUnits="userSpaceOnUse">
<stop stop-color="#EF0F72"/>
<stop offset="1" stop-color="#FE630A"/>
</linearGradient>
</defs>
</svg>
